# xmcd
#
# Track frame offsets: 
#        150
#        11132
#        24439
#        36595
#        50806
#        63319
#        76985
#        90480
#        101446
#        113305
#        124380
#        134761
#        146242
#        156189
#        168553
#
# Disc length: 2406 seconds
#
# Revision: 2
# Processed by: cddbd v1.5.1PL2 Copyright (c) Steve Scherf et al.
# Submitted via: ExactAudioCopy v0.95b3
#
DISCID=d109640f
DTITLE=Jimmy Witherspoon - Goin' Around In Circles
DYEAR=1950
DGENRE=Blues
TTITLE0=I'm Just A Lady's Man
TTITLE1=Ther Ain't Nothing Better
TTITLE2=Love Me Baby
TTITLE3=Love And Friendship
TTITLE4=Good Jumping AKA
TTITLE5=I'm Just A Country Boy
TTITLE6=Slow Your Speed
TTITLE7=Geneva Blues AKA Evel Woman
TTITLE8=I'm Just Wandering (Part 1)
TTITLE9=I'm Just Wandering (Part 2)
TTITLE10=Baby, Baby
TTITLE11=Sweet Lovin' Baby
TTITLE12=The Doctor Knows His Business AKA Doctor Blues
TTITLE13=Rain, Rain, Rain
TTITLE14=Thelma Lee Blues
EXTD=
EXTT0=
EXTT1=
EXTT2=
EXTT3=
EXTT4=
EXTT5=
EXTT6=
EXTT7=
EXTT8=
EXTT9=
EXTT10=
EXTT11=
EXTT12=
EXTT13=
EXTT14=
PLAYORDER=
